<?xml version="1.0" encoding="utf-8"?>
<svg xmlns="http://www.w3.org/2000/svg" style="margin: auto; background: rgb(0, 0, 0); display: block; shape-rendering: auto;" width="272" height="96" preserveAspectRatio="xMidYMid">
<style type="text/css">
  text {
    text-anchor: middle; font-size: 59px; opacity: 0;
  }
</style>
<g style="transform-origin: 136px 48px; transform: scale(0.7375);">
<g transform="translate(136,48)">
  <g transform="translate(0,0)"><g class="path" style="transform: scale(0.91); transform-origin: -157.035px -6.21852px; animation: 1s linear -0.594s infinite normal forwards running breath-d9cfa52d-bdfc-4dfa-8c4e-1fa7ebe6007b;"><path d="M34.73 0L3.20 0L3.20-2.38L28.16-51.21L3.98-51.21L3.98-56.02L34.73-56.02L34.73-53.59L9.77-4.80L34.73-4.80L34.73 0" fill="#df1317" stroke="none" stroke-width="none" transform="translate(-175.99996948242188,21.791480834960936)" style="fill: rgb(223, 19, 23);"></path></g><g class="path" style="transform: scale(0.91); transform-origin: -119.91px 1.79148px; animation: 1s linear -0.528s infinite normal forwards running breath-d9cfa52d-bdfc-4dfa-8c4e-1fa7ebe6007b;"><path d="M69.45-10.98L69.45-10.98L69.45-10.98Q69.45-8.55 68.54-6.41L68.54-6.41L68.54-6.41Q67.62-4.26 66.02-2.66L66.02-2.66L66.02-2.66Q64.41-1.05 62.27-0.14L62.27-0.14L62.27-0.14Q60.12 0.78 57.70 0.78L57.70 0.78L54.49 0.78L54.49 0.78Q52.07 0.78 49.92-0.14L49.92-0.14L49.92-0.14Q47.77-1.05 46.17-2.66L46.17-2.66L46.17-2.66Q44.57-4.26 43.65-6.41L43.65-6.41L43.65-6.41Q42.73-8.55 42.73-10.98L42.73-10.98L42.73-29.02L42.73-29.02Q42.73-31.45 43.65-33.59L43.65-33.59L43.65-33.59Q44.57-35.74 46.17-37.34L46.17-37.34L46.17-37.34Q47.77-38.95 49.92-39.86L49.92-39.86L49.92-39.86Q52.07-40.78 54.49-40.78L54.49-40.78L57.70-40.78L57.70-40.78Q60.12-40.78 62.27-39.86L62.27-39.86L62.27-39.86Q64.41-38.95 66.02-37.34L66.02-37.34L66.02-37.34Q67.62-35.74 68.54-33.59L68.54-33.59L68.54-33.59Q69.45-31.45 69.45-29.02L69.45-29.02L69.45-19.61L47.54-19.61L47.54-10.70L47.54-10.70Q47.54-9.26 48.09-7.99L48.09-7.99L48.09-7.99Q48.63-6.72 49.57-5.78L49.57-5.78L49.57-5.78Q50.51-4.84 51.78-4.30L51.78-4.30L51.78-4.30Q53.05-3.75 54.49-3.75L54.49-3.75L57.70-3.75L57.70-3.75Q59.14-3.75 60.41-4.30L60.41-4.30L60.41-4.30Q61.68-4.84 62.62-5.78L62.62-5.78L62.62-5.78Q63.55-6.72 64.10-7.99L64.10-7.99L64.10-7.99Q64.65-9.26 64.65-10.70L64.65-10.70L64.65-13.36L69.45-12.58L69.45-10.98zM64.65-23.36L64.65-29.30L64.65-29.30Q64.65-30.74 64.10-32.01L64.10-32.01L64.10-32.01Q63.55-33.28 62.62-34.22L62.62-34.22L62.62-34.22Q61.68-35.16 60.41-35.70L60.41-35.70L60.41-35.70Q59.14-36.25 57.70-36.25L57.70-36.25L54.49-36.25L54.49-36.25Q53.05-36.25 51.78-35.70L51.78-35.70L51.78-35.70Q50.51-35.16 49.57-34.22L49.57-34.22L49.57-34.22Q48.63-33.28 48.09-32.01L48.09-32.01L48.09-32.01Q47.54-30.74 47.54-29.30L47.54-29.30L47.54-23.36L64.65-23.36" fill="#df1317" stroke="none" stroke-width="none" transform="translate(-175.99996948242188,21.791480834960936)" style="fill: rgb(228, 147, 75);"></path></g><g class="path" style="transform: scale(0.91); transform-origin: -83.58px 1.79148px; animation: 1s linear -0.462s infinite normal forwards running breath-d9cfa52d-bdfc-4dfa-8c4e-1fa7ebe6007b;"><path d="M105.78-10.98L105.78-10.98L105.78-10.98Q105.78-8.55 104.86-6.41L104.86-6.41L104.86-6.41Q103.95-4.26 102.34-2.66L102.34-2.66L102.34-2.66Q100.74-1.05 98.59-0.14L98.59-0.14L98.59-0.14Q96.45 0.78 94.02 0.78L94.02 0.78L90.82 0.78L90.82 0.78Q88.40 0.78 86.25-0.14L86.25-0.14L86.25-0.14Q84.10-1.05 82.50-2.66L82.50-2.66L82.50-2.66Q80.90-4.26 79.98-6.41L79.98-6.41L79.98-6.41Q79.06-8.55 79.06-10.98L79.06-10.98L79.06-29.02L79.06-29.02Q79.06-31.45 79.98-33.59L79.98-33.59L79.98-33.59Q80.90-35.74 82.50-37.34L82.50-37.34L82.50-37.34Q84.10-38.95 86.25-39.86L86.25-39.86L86.25-39.86Q88.40-40.78 90.82-40.78L90.82-40.78L94.02-40.78L94.02-40.78Q96.45-40.78 98.59-39.86L98.59-39.86L98.59-39.86Q100.74-38.95 102.34-37.34L102.34-37.34L102.34-37.34Q103.95-35.74 104.86-33.59L104.86-33.59L104.86-33.59Q105.78-31.45 105.78-29.02L105.78-29.02L105.78-19.61L83.87-19.61L83.87-10.70L83.87-10.70Q83.87-9.26 84.41-7.99L84.41-7.99L84.41-7.99Q84.96-6.72 85.90-5.78L85.90-5.78L85.90-5.78Q86.84-4.84 88.11-4.30L88.11-4.30L88.11-4.30Q89.38-3.75 90.82-3.75L90.82-3.75L94.02-3.75L94.02-3.75Q95.47-3.75 96.74-4.30L96.74-4.30L96.74-4.30Q98.01-4.84 98.95-5.78L98.95-5.78L98.95-5.78Q99.88-6.72 100.43-7.99L100.43-7.99L100.43-7.99Q100.98-9.26 100.98-10.70L100.98-10.70L100.98-13.36L105.78-12.58L105.78-10.98zM100.98-23.36L100.98-29.30L100.98-29.30Q100.98-30.74 100.43-32.01L100.43-32.01L100.43-32.01Q99.88-33.28 98.95-34.22L98.95-34.22L98.95-34.22Q98.01-35.16 96.74-35.70L96.74-35.70L96.74-35.70Q95.47-36.25 94.02-36.25L94.02-36.25L90.82-36.25L90.82-36.25Q89.38-36.25 88.11-35.70L88.11-35.70L88.11-35.70Q86.84-35.16 85.90-34.22L85.90-34.22L85.90-34.22Q84.96-33.28 84.41-32.01L84.41-32.01L84.41-32.01Q83.87-30.74 83.87-29.30L83.87-29.30L83.87-23.36L100.98-23.36" fill="#df1317" stroke="none" stroke-width="none" transform="translate(-175.99996948242188,21.791480834960936)" style="fill: rgb(226, 187, 139);"></path></g><g class="path" style="transform: scale(0.91); transform-origin: -56.605px -6.21852px; animation: 1s linear -0.396s infinite normal forwards running breath-d9cfa52d-bdfc-4dfa-8c4e-1fa7ebe6007b;"><path d="M121.80 0L116.99 0L116.99-56.02L121.80-56.02L121.80 0" fill="#df1317" stroke="none" stroke-width="none" transform="translate(-175.99996948242188,21.791480834960936)" style="fill: rgb(29, 201, 201);"></path></g><g class="path" style="transform: scale(0.91); transform-origin: -8.04996px -6.21852px; animation: 1s linear -0.33s infinite normal forwards running breath-d9cfa52d-bdfc-4dfa-8c4e-1fa7ebe6007b;"><path d="M183.71-12.97L183.71-12.97L183.71-12.97Q183.71-10.12 182.64-7.62L182.64-7.62L182.64-7.62Q181.56-5.12 179.69-3.24L179.69-3.24L179.69-3.24Q177.81-1.37 175.31-0.29L175.31-0.29L175.31-0.29Q172.81 0.78 169.96 0.78L169.96 0.78L165.98 0.78L165.98 0.78Q163.13 0.78 160.61-0.29L160.61-0.29L160.61-0.29Q158.09-1.37 156.21-3.24L156.21-3.24L156.21-3.24Q154.34-5.12 153.26-7.62L153.26-7.62L153.26-7.62Q152.19-10.12 152.19-12.97L152.19-12.97L152.19-43.05L152.19-43.05Q152.19-45.90 153.26-48.40L153.26-48.40L153.26-48.40Q154.34-50.90 156.21-52.77L156.21-52.77L156.21-52.77Q158.09-54.65 160.61-55.72L160.61-55.72L160.61-55.72Q163.13-56.80 165.98-56.80L165.98-56.80L169.96-56.80L169.96-56.80Q172.81-56.80 175.31-55.72L175.31-55.72L175.31-55.72Q177.81-54.65 179.69-52.77L179.69-52.77L179.69-52.77Q181.56-50.90 182.64-48.40L182.64-48.40L182.64-48.40Q183.71-45.90 183.71-43.05L183.71-43.05L183.71-40.78L178.67-40L178.67-43.05L178.67-43.05Q178.67-44.92 177.97-46.54L177.97-46.54L177.97-46.54Q177.27-48.16 176.05-49.38L176.05-49.38L176.05-49.38Q174.84-50.59 173.22-51.29L173.22-51.29L173.22-51.29Q171.60-51.99 169.73-51.99L169.73-51.99L166.21-51.99L166.21-51.99Q164.34-51.99 162.71-51.29L162.71-51.29L162.71-51.29Q161.09-50.59 159.86-49.38L159.86-49.38L159.86-49.38Q158.63-48.16 157.93-46.54L157.93-46.54L157.93-46.54Q157.23-44.92 157.23-43.05L157.23-43.05L157.23-12.97L157.23-12.97Q157.23-11.09 157.93-9.47L157.93-9.47L157.93-9.47Q158.63-7.85 159.86-6.62L159.86-6.62L159.86-6.62Q161.09-5.39 162.71-4.69L162.71-4.69L162.71-4.69Q164.34-3.98 166.21-3.98L166.21-3.98L169.73-3.98L169.73-3.98Q171.60-3.98 173.22-4.69L173.22-4.69L173.22-4.69Q174.84-5.39 176.05-6.62L176.05-6.62L176.05-6.62Q177.27-7.85 177.97-9.47L177.97-9.47L177.97-9.47Q178.67-11.09 178.67-12.97L178.67-12.97L178.67-16.02L183.71-15.20L183.71-12.97" fill="#df1317" stroke="none" stroke-width="none" transform="translate(-175.99996948242188,21.791480834960936)" style="fill: rgb(6, 223, 5);"></path></g><g class="path" style="transform: scale(0.91); transform-origin: 30.68px 1.79148px; animation: 1s linear -0.264s infinite normal forwards running breath-d9cfa52d-bdfc-4dfa-8c4e-1fa7ebe6007b;"><path d="M220.04-10.98L220.04-10.98L220.04-10.98Q220.04-8.55 219.12-6.41L219.12-6.41L219.12-6.41Q218.20-4.26 216.60-2.66L216.60-2.66L216.60-2.66Q215-1.05 212.85-0.14L212.85-0.14L212.85-0.14Q210.70 0.78 208.28 0.78L208.28 0.78L205.08 0.78L205.08 0.78Q202.66 0.78 200.51-0.14L200.51-0.14L200.51-0.14Q198.36-1.05 196.76-2.66L196.76-2.66L196.76-2.66Q195.16-4.26 194.24-6.41L194.24-6.41L194.24-6.41Q193.32-8.55 193.32-10.98L193.32-10.98L193.32-29.02L193.32-29.02Q193.32-31.45 194.24-33.59L194.24-33.59L194.24-33.59Q195.16-35.74 196.76-37.34L196.76-37.34L196.76-37.34Q198.36-38.95 200.51-39.86L200.51-39.86L200.51-39.86Q202.66-40.78 205.08-40.78L205.08-40.78L208.28-40.78L208.28-40.78Q210.70-40.78 212.85-39.86L212.85-39.86L212.85-39.86Q215-38.95 216.60-37.34L216.60-37.34L216.60-37.34Q218.20-35.74 219.12-33.59L219.12-33.59L219.12-33.59Q220.04-31.45 220.04-29.02L220.04-29.02L220.04-10.98zM215.23-10.70L215.23-29.30L215.23-29.30Q215.23-30.74 214.69-32.01L214.69-32.01L214.69-32.01Q214.14-33.28 213.20-34.22L213.20-34.22L213.20-34.22Q212.27-35.16 211.00-35.70L211.00-35.70L211.00-35.70Q209.73-36.25 208.28-36.25L208.28-36.25L205.08-36.25L205.08-36.25Q203.63-36.25 202.36-35.70L202.36-35.70L202.36-35.70Q201.09-35.16 200.16-34.22L200.16-34.22L200.16-34.22Q199.22-33.28 198.67-32.01L198.67-32.01L198.67-32.01Q198.13-30.74 198.13-29.30L198.13-29.30L198.13-10.70L198.13-10.70Q198.13-9.26 198.67-7.99L198.67-7.99L198.67-7.99Q199.22-6.72 200.16-5.78L200.16-5.78L200.16-5.78Q201.09-4.84 202.36-4.30L202.36-4.30L202.36-4.30Q203.63-3.75 205.08-3.75L205.08-3.75L208.28-3.75L208.28-3.75Q209.73-3.75 211.00-4.30L211.00-4.30L211.00-4.30Q212.27-4.84 213.20-5.78L213.20-5.78L213.20-5.78Q214.14-6.72 214.69-7.99L214.69-7.99L214.69-7.99Q215.23-9.26 215.23-10.70L215.23-10.70" fill="#df1317" stroke="none" stroke-width="none" transform="translate(-175.99996948242188,21.791480834960936)" style="fill: rgb(7, 171, 204);"></path></g><g class="path" style="transform: scale(0.91); transform-origin: 67.01px -5.82852px; animation: 1s linear -0.198s infinite normal forwards running breath-d9cfa52d-bdfc-4dfa-8c4e-1fa7ebe6007b;"><path d="M256.37 0L254.77 0L252.11-4.06L252.11-4.06Q250.47-1.84 248.01-0.53L248.01-0.53L248.01-0.53Q245.55 0.78 242.62 0.78L242.62 0.78L241.41 0.78L241.41 0.78Q238.98 0.78 236.84-0.14L236.84-0.14L236.84-0.14Q234.69-1.05 233.09-2.66L233.09-2.66L233.09-2.66Q231.48-4.26 230.57-6.41L230.57-6.41L230.57-6.41Q229.65-8.55 229.65-10.98L229.65-10.98L229.65-29.02L229.65-29.02Q229.65-31.45 230.57-33.59L230.57-33.59L230.57-33.59Q231.48-35.74 233.09-37.34L233.09-37.34L233.09-37.34Q234.69-38.95 236.84-39.86L236.84-39.86L236.84-39.86Q238.98-40.78 241.41-40.78L241.41-40.78L242.62-40.78L242.62-40.78Q245.31-40.78 247.62-39.69L247.62-39.69L247.62-39.69Q249.92-38.59 251.56-36.64L251.56-36.64L251.56-56.02L256.37-56.02L256.37 0zM251.56-10.70L251.56-29.30L251.56-29.30Q251.56-30.74 251.02-32.01L251.02-32.01L251.02-32.01Q250.47-33.28 249.53-34.22L249.53-34.22L249.53-34.22Q248.59-35.16 247.32-35.70L247.32-35.70L247.32-35.70Q246.05-36.25 244.61-36.25L244.61-36.25L241.41-36.25L241.41-36.25Q239.96-36.25 238.69-35.70L238.69-35.70L238.69-35.70Q237.42-35.16 236.48-34.22L236.48-34.22L236.48-34.22Q235.55-33.28 235-32.01L235-32.01L235-32.01Q234.45-30.74 234.45-29.30L234.45-29.30L234.45-10.70L234.45-10.70Q234.45-9.26 235-7.99L235-7.99L235-7.99Q235.55-6.72 236.48-5.78L236.48-5.78L236.48-5.78Q237.42-4.84 238.69-4.30L238.69-4.30L238.69-4.30Q239.96-3.75 241.41-3.75L241.41-3.75L244.61-3.75L244.61-3.75Q246.05-3.75 247.32-4.30L247.32-4.30L247.32-4.30Q248.59-4.84 249.53-5.78L249.53-5.78L249.53-5.78Q250.47-6.72 251.02-7.99L251.02-7.99L251.02-7.99Q251.56-9.26 251.56-10.70L251.56-10.70" fill="#df1317" stroke="none" stroke-width="none" transform="translate(-175.99996948242188,21.791480834960936)" style="fill: rgb(10, 105, 170);"></path></g><g class="path" style="transform: scale(0.91); transform-origin: 103.34px -5.82852px; animation: 1s linear -0.132s infinite normal forwards running breath-d9cfa52d-bdfc-4dfa-8c4e-1fa7ebe6007b;"><path d="M292.70 0L291.09 0L288.44-4.06L288.44-4.06Q286.80-1.84 284.34-0.53L284.34-0.53L284.34-0.53Q281.88 0.78 278.95 0.78L278.95 0.78L277.73 0.78L277.73 0.78Q275.31 0.78 273.16-0.14L273.16-0.14L273.16-0.14Q271.02-1.05 269.41-2.66L269.41-2.66L269.41-2.66Q267.81-4.26 266.89-6.41L266.89-6.41L266.89-6.41Q265.98-8.55 265.98-10.98L265.98-10.98L265.98-29.02L265.98-29.02Q265.98-31.45 266.89-33.59L266.89-33.59L266.89-33.59Q267.81-35.74 269.41-37.34L269.41-37.34L269.41-37.34Q271.02-38.95 273.16-39.86L273.16-39.86L273.16-39.86Q275.31-40.78 277.73-40.78L277.73-40.78L278.95-40.78L278.95-40.78Q281.64-40.78 283.95-39.69L283.95-39.69L283.95-39.69Q286.25-38.59 287.89-36.64L287.89-36.64L287.89-56.02L292.70-56.02L292.70 0zM287.89-10.70L287.89-29.30L287.89-29.30Q287.89-30.74 287.34-32.01L287.34-32.01L287.34-32.01Q286.80-33.28 285.86-34.22L285.86-34.22L285.86-34.22Q284.92-35.16 283.65-35.70L283.65-35.70L283.65-35.70Q282.38-36.25 280.94-36.25L280.94-36.25L277.73-36.25L277.73-36.25Q276.29-36.25 275.02-35.70L275.02-35.70L275.02-35.70Q273.75-35.16 272.81-34.22L272.81-34.22L272.81-34.22Q271.88-33.28 271.33-32.01L271.33-32.01L271.33-32.01Q270.78-30.74 270.78-29.30L270.78-29.30L270.78-10.70L270.78-10.70Q270.78-9.26 271.33-7.99L271.33-7.99L271.33-7.99Q271.88-6.72 272.81-5.78L272.81-5.78L272.81-5.78Q273.75-4.84 275.02-4.30L275.02-4.30L275.02-4.30Q276.29-3.75 277.73-3.75L277.73-3.75L280.94-3.75L280.94-3.75Q282.38-3.75 283.65-4.30L283.65-4.30L283.65-4.30Q284.92-4.84 285.86-5.78L285.86-5.78L285.86-5.78Q286.80-6.72 287.34-7.99L287.34-7.99L287.34-7.99Q287.89-9.26 287.89-10.70L287.89-10.70" fill="#df1317" stroke="none" stroke-width="none" transform="translate(-175.99996948242188,21.791480834960936)" style="fill: rgb(25, 70, 69);"></path></g><g class="path" style="transform: scale(0.91); transform-origin: 139.66px 1.79148px; animation: 1s linear -0.066s infinite normal forwards running breath-d9cfa52d-bdfc-4dfa-8c4e-1fa7ebe6007b;"><path d="M329.02-10.98L329.02-10.98L329.02-10.98Q329.02-8.55 328.11-6.41L328.11-6.41L328.11-6.41Q327.19-4.26 325.59-2.66L325.59-2.66L325.59-2.66Q323.98-1.05 321.84-0.14L321.84-0.14L321.84-0.14Q319.69 0.78 317.27 0.78L317.27 0.78L314.06 0.78L314.06 0.78Q311.64 0.78 309.49-0.14L309.49-0.14L309.49-0.14Q307.34-1.05 305.74-2.66L305.74-2.66L305.74-2.66Q304.14-4.26 303.22-6.41L303.22-6.41L303.22-6.41Q302.30-8.55 302.30-10.98L302.30-10.98L302.30-29.02L302.30-29.02Q302.30-31.45 303.22-33.59L303.22-33.59L303.22-33.59Q304.14-35.74 305.74-37.34L305.74-37.34L305.74-37.34Q307.34-38.95 309.49-39.86L309.49-39.86L309.49-39.86Q311.64-40.78 314.06-40.78L314.06-40.78L317.27-40.78L317.27-40.78Q319.69-40.78 321.84-39.86L321.84-39.86L321.84-39.86Q323.98-38.95 325.59-37.34L325.59-37.34L325.59-37.34Q327.19-35.74 328.11-33.59L328.11-33.59L328.11-33.59Q329.02-31.45 329.02-29.02L329.02-29.02L329.02-19.61L307.11-19.61L307.11-10.70L307.11-10.70Q307.11-9.26 307.66-7.99L307.66-7.99L307.66-7.99Q308.20-6.72 309.14-5.78L309.14-5.78L309.14-5.78Q310.08-4.84 311.35-4.30L311.35-4.30L311.35-4.30Q312.62-3.75 314.06-3.75L314.06-3.75L317.27-3.75L317.27-3.75Q318.71-3.75 319.98-4.30L319.98-4.30L319.98-4.30Q321.25-4.84 322.19-5.78L322.19-5.78L322.19-5.78Q323.13-6.72 323.67-7.99L323.67-7.99L323.67-7.99Q324.22-9.26 324.22-10.70L324.22-10.70L324.22-13.36L329.02-12.58L329.02-10.98zM324.22-23.36L324.22-29.30L324.22-29.30Q324.22-30.74 323.67-32.01L323.67-32.01L323.67-32.01Q323.13-33.28 322.19-34.22L322.19-34.22L322.19-34.22Q321.25-35.16 319.98-35.70L319.98-35.70L319.98-35.70Q318.71-36.25 317.27-36.25L317.27-36.25L314.06-36.25L314.06-36.25Q312.62-36.25 311.35-35.70L311.35-35.70L311.35-35.70Q310.08-35.16 309.14-34.22L309.14-34.22L309.14-34.22Q308.20-33.28 307.66-32.01L307.66-32.01L307.66-32.01Q307.11-30.74 307.11-29.30L307.11-29.30L307.11-23.36L324.22-23.36" fill="#df1317" stroke="none" stroke-width="none" transform="translate(-175.99996948242188,21.791480834960936)" style="fill: rgb(223, 19, 23);"></path></g><g class="path" style="transform: scale(0.91); transform-origin: 170.915px 1.40148px; animation: 1s linear 0s infinite normal forwards running breath-d9cfa52d-bdfc-4dfa-8c4e-1fa7ebe6007b;"><path d="M355.20-35.43L350.39-35.43L350.39-35.43Q348.95-35.43 347.68-34.88L347.68-34.88L347.68-34.88Q346.41-34.34 345.47-33.40L345.47-33.40L345.47-33.40Q344.53-32.46 343.98-31.19L343.98-31.19L343.98-31.19Q343.44-29.92 343.44-28.48L343.44-28.48L343.44 0L338.63 0L338.63-40L340.23-40L342.85-35.94L342.85-35.94Q344.49-38.16 346.97-39.47L346.97-39.47L346.97-39.47Q349.45-40.78 352.38-40.78L352.38-40.78L355.20-40.78L355.20-35.43" fill="#df1317" stroke="none" stroke-width="none" transform="translate(-175.99996948242188,21.791480834960936)" style="fill: rgb(228, 147, 75);"></path></g></g>
</g>
</g>
<style id="breath-d9cfa52d-bdfc-4dfa-8c4e-1fa7ebe6007b" data-anikit="">@keyframes breath-d9cfa52d-bdfc-4dfa-8c4e-1fa7ebe6007b
{
  0% {
    animation-timing-function: cubic-bezier(0.9647,0.2413,-0.0705,0.7911);
    transform: scale(0.9099999999999999);
  }
  51% {
    animation-timing-function: cubic-bezier(0.9226,0.2631,-0.0308,0.7628);
    transform: scale(1.02994);
  }
  100% {
    transform: scale(0.9099999999999999);
  }
}</style></svg>